HIERARCHY
ROOT joint_Root
{
	OFFSET 0.0 0.0 0.0
	CHANNELS 6 Xposition Yposition Zposition Zrotation Xrotation Yrotation 
	JOINT Hips
	{
		OFFSET 4.5925 91.4895 -427.239
		CHANNELS 6 Xposition Yposition Zposition Zrotation Xrotation Yrotation 
		JOINT Spine
		{
			OFFSET 15.7357 0.0 0.0
			CHANNELS 6 Xposition Yposition Zposition Zrotation Xrotation Yrotation 
			JOINT Chest
			{
				OFFSET 8.98455 -0.406207 0.0
				CHANNELS 6 Xposition Yposition Zposition Zrotation Xrotation Yrotation 
				JOINT Neck
				{
					OFFSET 16.3773 0.0 0.0
					CHANNELS 6 Xposition Yposition Zposition Zrotation Xrotation Yrotation 
					JOINT Head
					{
						OFFSET 6.45672 0.0 0.0
						CHANNELS 6 Xposition Yposition Zposition Zrotation Xrotation Yrotation 
						End Site
						{
							OFFSET 0.0 0.0 0.0
						}
					}
				}
				JOINT Shoulder_L
				{
					OFFSET 12.9942 -0.242716 4.98039
					CHANNELS 6 Xposition Yposition Zposition Zrotation Xrotation Yrotation 
					JOINT UpperArm_L
					{
						OFFSET 5.34809 0.0 0.0
						CHANNELS 6 Xposition Yposition Zposition Zrotation Xrotation Yrotation 
						JOINT LowerArm_L
						{
							OFFSET 24.3286 1.87007e-05 0.0
							CHANNELS 6 Xposition Yposition Zposition Zrotation Xrotation Yrotation 
							JOINT Hand_L
							{
								OFFSET 22.2916 0.0 0.0
								CHANNELS 6 Xposition Yposition Zposition Zrotation Xrotation Yrotation 
								End Site
								{
									OFFSET 0.0 0.0 0.0
								}
							}
						}
					}
				}
				JOINT Shoulder_R
				{
					OFFSET 12.9945 -0.242716 -4.98039
					CHANNELS 6 Xposition Yposition Zposition Zrotation Xrotation Yrotation 
					JOINT UpperArm_R
					{
						OFFSET -5.34813 0.0 0.0
						CHANNELS 6 Xposition Yposition Zposition Zrotation Xrotation Yrotation 
						JOINT LowerArm_R
						{
							OFFSET -24.3289 0.000322201 0.0
							CHANNELS 6 Xposition Yposition Zposition Zrotation Xrotation Yrotation 
							JOINT Hand_R
							{
								OFFSET -22.2915 -0.000108084 0.0
								CHANNELS 6 Xposition Yposition Zposition Zrotation Xrotation Yrotation 
								End Site
								{
									OFFSET 0.0 0.0 0.0
								}
							}
						}
					}
				}
			}
		}
		JOINT UpperLeg_L
		{
			OFFSET -2.19248 -6.46944 0.0
			CHANNELS 6 Xposition Yposition Zposition Zrotation Xrotation Yrotation 
			JOINT LowerLeg_L
			{
				OFFSET 39.0811 0.0 -1.23785e-05
				CHANNELS 6 Xposition Yposition Zposition Zrotation Xrotation Yrotation 
				JOINT Foot_L
				{
					OFFSET 40.9854 0.0 -1.26872e-05
					CHANNELS 6 Xposition Yposition Zposition Zrotation Xrotation Yrotation 
					JOINT Toes_L
					{
						OFFSET 11.7543 0.0 0.0
						CHANNELS 6 Xposition Yposition Zposition Zrotation Xrotation Yrotation 
						End Site
						{
							OFFSET 0.0 0.0 0.0
						}
					}
				}
			}
		}
		JOINT UpperLeg_R
		{
			OFFSET -2.19251 6.46944 0.0
			CHANNELS 6 Xposition Yposition Zposition Zrotation Xrotation Yrotation 
			JOINT LowerLeg_R
			{
				OFFSET -39.0811 -0.00228153 -0.0401928
				CHANNELS 6 Xposition Yposition Zposition Zrotation Xrotation Yrotation 
				JOINT Foot_R
				{
					OFFSET -40.9854 0.0 0.0
					CHANNELS 6 Xposition Yposition Zposition Zrotation Xrotation Yrotation 
					JOINT Toes_R
					{
						OFFSET -11.7543 0.0 0.0
						CHANNELS 6 Xposition Yposition Zposition Zrotation Xrotation Yrotation 
						End Site
						{
							OFFSET 0.0 0.0 0.0
						}
					}
				}
			}
		}
	}
}
MOTION
Frames:	4
Frame Time:	0.0333333
0.000000 0.000000 0.000000 0.000000 0.000000 -0.000000 -0.015151 90.207600 2.223760 89.772100 -3.610040 11.754700 15.735700 0.000005 -0.000001 87.678700 82.076300 -87.968500 8.984550 -0.406207 -0.000000 8.067140 -0.639855 -0.533935 16.377300 -0.000001 -0.000001 14.968700 -5.062110 3.722650 6.456720 -0.000001 -0.000000 3.818480 -5.049290 2.187020 12.994200 -0.242716 4.980390 -89.689700 -1.088740 -74.088100 5.348090 -0.000007 -0.000001 -58.948100 0.722003 -66.290800 24.328600 0.000019 0.000005 41.220800 -5.621330 -96.379700 22.291600 -0.000001 0.000005 20.568800 5.021020 6.868700 12.994500 -0.242716 -4.980390 89.622500 2.167670 -80.119300 -5.348130 -0.000001 -0.000004 -54.580300 -2.948330 -65.409000 -24.328900 0.000322 -0.000009 22.649800 -3.991410 -99.470700 -22.291500 -0.000108 -0.000004 27.052200 5.245260 1.557440 -2.192480 -6.469440 -0.000000 -175.213000 -11.459300 2.371670 39.081100 -0.000007 -0.000012 -0.220825 0.345684 32.571100 40.985400 -0.000006 -0.000013 0.909318 4.923220 -73.071900 11.754300 -0.000000 0.000003 -0.000204 -0.001883 -16.648500 -2.192510 6.469440 -0.000001 171.786000 20.568800 -176.491000 -39.081100 -0.002282 -0.040193 -0.219960 0.352806 32.326100 -40.985400 0.000008 0.000006 3.854930 13.692300 -73.390700 -11.754300 -0.000006 -0.000006 -0.001971 -0.028347 -17.725800
0.000000 0.000000 0.000000 0.000000 0.000000 -0.000000 -0.011327 90.208300 2.176410 89.766800 -3.558240 11.755400 15.735700 0.000005 -0.000001 87.579000 82.071500 -87.857400 8.984550 -0.406207 -0.000000 8.075610 -0.667672 -0.509261 16.377300 -0.000001 -0.000001 14.931800 -5.041970 3.795410 6.456720 -0.000001 -0.000000 3.760230 -5.055210 2.151570 12.994200 -0.242716 4.980390 -89.649600 -1.242930 -74.255700 5.348090 -0.000007 -0.000001 -57.645800 2.509460 -67.323300 24.328600 0.000019 0.000005 41.765300 -5.712720 -96.360300 22.291600 -0.000001 0.000005 20.244000 5.040530 6.444930 12.994500 -0.242716 -4.980390 89.646600 2.048890 -80.212100 -5.348130 -0.000001 -0.000004 -53.279500 -1.571080 -66.498000 -24.328900 0.000322 -0.000009 23.156500 -4.181920 -99.676200 -22.291500 -0.000108 -0.000004 26.678600 5.249390 1.448540 -2.192480 -6.469440 -0.000000 -175.214000 -11.466500 2.311370 39.081100 -0.000007 -0.000012 -0.217388 0.339848 32.605900 40.985400 -0.000006 -0.000013 0.938934 4.986280 -73.049700 11.754300 -0.000000 0.000003 -0.000188 -0.001758 -16.644000 -2.192510 6.469440 -0.000001 171.813000 20.579000 -176.541000 -39.081100 -0.002282 -0.040193 -0.216353 0.346630 32.361600 -40.985400 0.000008 0.000006 3.943950 13.643900 -73.399900 -11.754300 -0.000006 -0.000006 -0.002043 -0.029250 -17.762500
0.000000 0.000000 0.000000 0.000000 0.000000 -0.000000 -0.007120 90.209200 2.131050 89.804900 -3.483850 11.777100 15.735700 0.000005 -0.000001 87.377300 82.057300 -87.661100 8.984550 -0.406207 -0.000000 8.101450 -0.724529 -0.515724 16.377300 -0.000001 -0.000001 14.899900 -5.128130 3.810720 6.456720 -0.000001 -0.000000 3.696760 -5.023110 2.225450 12.994200 -0.242716 4.980390 -89.616400 -1.374410 -74.402800 5.348090 -0.000007 -0.000001 -56.641200 3.846880 -68.102000 24.328600 0.000019 0.000005 42.094600 -5.742450 -96.320100 22.291600 -0.000001 0.000005 19.827900 5.057930 6.061680 12.994500 -0.242716 -4.980390 89.674500 1.905990 -80.307100 -5.348130 -0.000001 -0.000004 -52.325800 -0.527236 -67.332500 -24.328900 0.000322 -0.000009 23.662500 -4.377460 -99.881400 -22.291500 -0.000108 -0.000004 26.330100 5.253870 1.330070 -2.192480 -6.469440 -0.000000 -175.263000 -11.414300 2.279000 39.081100 -0.000007 -0.000012 -0.219679 0.343333 32.613200 40.985400 -0.000006 -0.000013 0.942038 4.992450 -73.010200 11.754300 -0.000000 0.000003 -0.000206 -0.001896 -16.649000 -2.192510 6.469440 -0.000001 171.782000 20.610300 -176.568000 -39.081100 -0.002282 -0.040193 -0.216130 0.345651 32.408500 -40.985400 0.000008 0.000006 3.970790 13.556200 -73.402100 -11.754300 -0.000006 -0.000006 -0.001986 -0.028538 -17.733500
0.000000 0.000000 0.000000 0.000000 0.000000 -0.000000 -0.005200 90.208800 2.087570 89.829000 -3.425640 11.808900 15.735700 0.000005 -0.000001 87.267500 82.036500 -87.554500 8.984550 -0.406207 -0.000000 8.141640 -0.756888 -0.519697 16.377300 -0.000001 -0.000001 14.922700 -5.176410 3.923590 6.456720 -0.000001 -0.000000 3.588650 -5.066090 2.269780 12.994200 -0.242716 4.980390 -89.589300 -1.483250 -74.519100 5.348090 -0.000007 -0.000001 -55.894100 4.784580 -68.665500 24.328600 0.000019 0.000005 42.580100 -5.719690 -96.189900 22.291600 -0.000001 0.000005 19.671100 5.063510 5.937540 12.994500 -0.242716 -4.980390 89.689200 1.836180 -80.392000 -5.348130 -0.000001 -0.000004 -51.752800 0.054440 -67.849900 -24.328900 0.000322 -0.000009 23.649000 -4.474470 -100.102000 -22.291500 -0.000108 -0.000004 26.048700 5.262710 1.094080 -2.192480 -6.469440 -0.000000 -175.308000 -11.376800 2.266390 39.081100 -0.000007 -0.000012 -0.214598 0.335213 32.627100 40.985400 -0.000006 -0.000013 0.953289 4.987240 -72.987000 11.754300 -0.000000 0.000003 -0.000194 -0.001801 -16.645600 -2.192510 6.469440 -0.000001 171.767000 20.588400 -176.584000 -39.081100 -0.002282 -0.040193 -0.214748 0.342997 32.444600 -40.985400 0.000008 0.000006 3.960000 13.497700 -73.390900 -11.754300 -0.000006 -0.000006 -0.001965 -0.028282 -17.723100
